<svg width="297" height="109" viewBox="0 0 297 109" fill="none" xmlns="http://www.w3.org/2000/svg">
<path d="M47.8198 44.8375C50.9504 41.714 56.2743 44.2028 55.8854 48.608L54.0762 69.1003H49.7304L47.8198 44.8375Z" fill="white"/>
<path d="M87.9712 63.681C86.1965 70.5347 81.7906 74.3287 73.8353 74.3287C64.0443 74.0228 59.1488 68.3317 59.1488 57.3168C59.1488 46.3019 64.1055 40.7945 73.9577 40.7333C84.2383 40.7333 89.0726 47.0362 88.4607 59.7034H67.5324C67.8383 64.6601 69.9801 67.1691 73.9577 67.1691C75.8547 67.1691 77.6294 66.3735 79.2204 64.8437C79.9547 64.0482 80.8727 63.681 81.9741 63.681H87.9712ZM73.8353 47.4034C70.3473 47.4034 68.2667 49.6064 67.6548 53.89H79.8324C79.3428 49.6064 77.3234 47.4034 73.8353 47.4034Z" fill="white"/>
<path d="M103.285 67.5974C107.813 67.5974 110.567 64.9049 110.567 60.3153V57.3168C108.67 58.1123 106.467 58.7855 104.08 59.275C100.837 59.887 99.1849 61.4168 99.1849 63.8034C99.3685 66.3735 100.715 67.5974 103.285 67.5974ZM105.182 47.4034C102.306 47.4034 100.715 48.1377 100.286 49.6676H92.1476C93.1267 43.6706 97.3491 40.7333 104.815 40.7333C113.749 40.7333 118.277 43.6706 118.461 49.6676V60.6825C118.461 69.6168 113.076 73.5944 104.325 74.2064C96.5536 74.8183 91.1685 71.2079 91.1685 64.0482C91.3521 56.2765 96.982 54.1959 105.182 53.4004C108.67 52.9721 110.445 51.9318 110.445 50.1571C110.261 48.3213 108.548 47.4034 105.182 47.4034Z" fill="white"/>
<path d="M155.407 31.9825C157.549 31.9825 159.323 33.8183 159.323 35.9601V53.89L169.359 42.3855H179.15L167.952 54.3795L179.273 73.5944H169.482L163.729 62.9467C162.689 61.1109 161.649 60.1929 160.608 60.1929C159.752 60.3765 159.323 60.9273 159.323 61.784V73.5944H151.185V31.9825H155.407Z" fill="white"/>
<path d="M191.251 67.5974C195.78 67.5974 198.533 64.9049 198.533 60.3153V57.3168C196.636 58.1123 194.433 58.7855 192.047 59.275C188.803 59.887 187.151 61.4168 187.151 63.8034C187.335 66.3735 188.681 67.5974 191.251 67.5974ZM193.148 47.4034C190.272 47.4034 188.681 48.1377 188.253 49.6676H180.114C181.093 43.6706 185.315 40.7333 192.781 40.7333C201.715 40.7333 206.244 43.6706 206.427 49.6676V60.6825C206.427 69.6168 201.042 73.5944 192.292 74.2064C184.52 74.8183 179.135 71.2079 179.135 64.0482C179.318 56.2765 184.948 54.1959 193.148 53.4004C196.636 52.9721 198.411 51.9318 198.411 50.1571C198.227 48.3213 196.514 47.4034 193.148 47.4034Z" fill="white"/>
<path d="M223.485 48.0153C219.079 48.0153 216.815 51.075 216.57 57.3168C216.509 63.8646 218.712 67.1691 223.363 67.1691C228.014 67.1691 230.339 63.8646 230.339 57.3168C230.155 51.075 227.891 48.0153 223.485 48.0153ZM234.378 31.9825C236.581 31.9825 238.417 33.8795 238.417 36.0825V59.581C238.417 69.3108 233.337 74.1452 223.24 74.084C213.205 73.9004 208.187 68.4541 208.187 57.684C208.187 46.6691 212.47 41.0392 221.099 40.7333C225.137 40.7333 228.258 42.3855 230.339 45.7512V31.9825H234.378Z" fill="white"/>
<path d="M252.445 67.5974C256.974 67.5974 259.727 64.9049 259.727 60.3153V57.3168C257.83 58.1123 255.627 58.7855 253.241 59.275C249.997 59.887 248.345 61.4168 248.345 63.8034C248.529 66.3735 249.875 67.5974 252.445 67.5974ZM254.342 47.4034C251.466 47.4034 249.875 48.1377 249.447 49.6676H241.308C242.287 43.6706 246.509 40.7333 253.975 40.7333C262.909 40.7333 267.438 43.6706 267.621 49.6676V60.6825C267.621 69.6168 262.236 73.5944 253.486 74.2064C245.714 74.8183 240.329 71.2079 240.329 64.0482C240.512 56.2765 246.142 54.1959 254.342 53.4004C257.83 52.9721 259.605 51.9318 259.605 50.1571C259.421 48.3213 257.708 47.4034 254.342 47.4034Z" fill="white"/>
<path d="M269.748 73.5944V56.8885C269.993 46.4243 275.561 41.2228 286.393 41.2228H287.555V49.6676H284.802C280.273 49.6676 278.009 52.0541 278.009 56.7661V73.5944H269.748Z" fill="white"/>
<mask id="mask0_22_10" style="mask-type:alpha" maskUnits="userSpaceOnUse" x="120" y="40" width="29" height="34">
<path d="M148.186 73.2268H144.025C141.332 73.0433 139.986 71.7582 139.986 69.188V52.5433C139.802 49.1776 137.967 47.5254 134.356 47.5254C130.746 47.5254 128.91 49.1776 128.849 52.5433V73.2268H120.588V54.1955C120.588 44.9552 125.238 40.3657 134.479 40.3657C143.719 40.3657 148.247 44.9552 148.186 54.1955V73.2268Z" fill="#1A3679"/>
</mask>
<g mask="url(#mask0_22_10)">
<rect x="134.389" y="33.2287" width="13.7973" height="42.549" fill="white"/>
</g>
<mask id="mask1_22_10" style="mask-type:alpha" maskUnits="userSpaceOnUse" x="120" y="40" width="29" height="34">
<path d="M120.588 73.2268H124.749C127.442 73.0433 128.788 71.7582 128.788 69.188V52.5433C128.972 49.1776 130.808 47.5254 134.418 47.5254C138.028 47.5254 139.864 49.1776 139.925 52.5433V73.2268H148.187V54.1955C148.187 44.9552 143.536 40.3657 134.296 40.3657C125.055 40.3657 120.527 44.9552 120.588 54.1955V73.2268Z" fill="#1A3679"/>
</mask>
<g mask="url(#mask1_22_10)">
<rect width="13.7973" height="42.549" transform="matrix(-1 0 0 1 134.385 33.2287)" fill="white"/>
</g>
<path d="M51.3138 27.1771L51.6651 28.4032C52.2384 30.4041 53.8026 31.9682 55.8035 32.5415L57.0295 32.8928L55.8034 33.2442C53.8024 33.8174 52.2384 35.3815 51.6651 37.3824L51.3138 38.6086L50.9624 37.3824C50.3891 35.3815 48.8251 33.8174 46.8241 33.2442L45.598 32.8928L46.824 32.5415C48.8249 31.9682 50.389 30.404 50.9624 28.4032L51.3138 27.1771Z" fill="white"/>
<path d="M42.0376 23.5591L42.26 24.3352C42.6229 25.6018 43.613 26.5918 44.8796 26.9547L45.6556 27.1771L44.8795 27.3995C43.6129 27.7623 42.6229 28.7524 42.26 30.0189L42.0376 30.7951L41.8152 30.0189C41.4524 28.7524 40.4623 27.7623 39.1958 27.3995L38.4197 27.1771L39.1957 26.9547C40.4622 26.5918 41.4523 25.6017 41.8152 24.3352L42.0376 23.5591Z" fill="white"/>
<path d="M64.3528 9.21786L65.1136 11.8729C66.3549 16.2056 69.742 19.5923 74.0747 20.8336L76.7294 21.5944L74.0744 22.3552C69.7416 23.5966 66.3549 26.9833 65.1136 31.316L64.3528 33.971L63.592 31.316C62.3507 26.9833 58.964 23.5966 54.6313 22.3552L51.9762 21.5944L54.6309 20.8336C58.9636 19.5923 62.3503 16.2052 63.592 11.8729L64.3528 9.21786Z" fill="white"/>
<path fill-rule="evenodd" clip-rule="evenodd" d="M48.463 76.6836C48.4753 76.6902 48.4877 76.6968 48.5001 76.7032C46.1279 77.4706 44.1876 79.1405 43.1455 81.7324C42.5385 83.5352 42.292 85.4344 42.0424 87.3571C41.5861 90.873 41.1195 94.4677 38.4197 97.6962C39.4902 98.0668 40.7469 98.417 42.1879 98.7464C44.4195 97.1219 45.705 94.6102 45.675 91.6132C46.8921 93.9828 46.8226 96.7292 45.6158 99.3308C46.7686 99.4955 48.0253 99.6219 49.384 99.7043C49.7724 98.9257 50.0421 98.2276 50.2414 97.712C50.7917 96.2877 50.8041 96.2555 51.2958 99.7635C53.062 99.797 54.944 99.8233 56.8871 99.4861C55.5234 97.1093 55.4523 94.308 56.669 91.6132C56.575 94.5163 58.0093 97.1508 60.5592 98.961C62.4531 98.5904 64.1125 98.1698 65.5329 97.6963C62.8792 93.4294 61.6439 87.4864 60.8072 81.7324C59.9306 79.2692 57.9976 77.5933 55.4304 76.7144C55.4502 76.7043 55.4698 76.6941 55.4893 76.6836H48.463Z" fill="white"/>
<path fill-rule="evenodd" clip-rule="evenodd" d="M49.7692 71.1316L49.9953 71.1316L54.1833 71.1317C55.1453 71.3915 55.8534 72.2691 55.8534 73.3131C55.8534 74.1887 55.3551 74.9468 54.6271 75.3221H49.3116C49.3144 75.3212 49.3171 75.3203 49.3199 75.3194C48.5949 74.9432 48.0992 74.1864 48.0992 73.3131C48.0992 72.269 48.8073 71.3913 49.7692 71.1316Z" fill="white"/>
<path fill-rule="evenodd" clip-rule="evenodd" d="M7.39397 52.3922C7.40356 39.0079 14.1347 30.9418 27.282 30.9418C32.3611 30.9418 36.4611 32.1657 39.582 34.7358C42.5193 37.3672 44.1715 40.9776 44.5999 45.506H39.4596C37.6238 45.506 36.2775 44.6493 35.482 42.997C34.0745 39.9985 31.3208 38.4687 27.282 38.4687C19.397 38.4687 15.9079 44.0246 15.8999 52.3922H7.39397Z" fill="white"/>
<path fill-rule="evenodd" clip-rule="evenodd" d="M7.39397 52.3744C7.40357 65.7587 14.1347 73.8248 27.282 73.8248C32.3611 73.8248 36.4611 72.6009 39.582 70.0308C42.5193 67.3995 44.1715 63.789 44.5999 59.2607H39.4596C37.6238 59.2607 36.2775 60.1174 35.482 61.7696C34.0745 64.7681 31.3208 66.298 27.282 66.298C19.397 66.298 15.9079 60.742 15.8999 52.3744H7.39397Z" fill="white"/>
</svg>
